<?xml version="1.0" encoding="UTF-8" standalone="no"?>
<!-- Created with Inkscape (http://www.inkscape.org/) -->

<svg
   width="412.82428"
   height="418.68866"
   viewBox="0 0 412.82428 418.68866"
   version="1.1"
   id="svg1"
   xml:space="preserve"
   xmlns="http://www.w3.org/2000/svg"
   xmlns:svg="http://www.w3.org/2000/svg"><defs
     id="defs1" /><g
     id="layer2"
     transform="translate(-49.587856,-40.421276)"><g
       id="g2"
       transform="translate(7.0859431,-32.517529)"><path
         id="path1"
         style="display:inline;fill:#bdbfc7;fill-opacity:1;stroke:none;stroke-width:7.00544;stroke-linecap:round;stroke-linejoin:round;stroke-dashoffset:0.04;paint-order:stroke fill markers"
         d="m 297.35547,85.407607 a 56.414402,59.078107 0 0 0 -56.41406,59.078393 56.414402,59.078107 0 0 0 48.81054,58.50972 75.968391,79.073773 0 0 0 -0.72265,10.5263 75.968391,79.073773 0 0 0 75.96875,79.07263 75.968391,79.073773 0 0 0 75.96679,-79.07263 75.968391,79.073773 0 0 0 -75.96679,-79.07461 75.968391,79.073773 0 0 0 -11.89063,1.05046 56.414402,59.078107 0 0 0 -55.75195,-50.090263 z" /><path
         id="path10"
         style="fill:#f4f4f6;stroke-width:16.1541;stroke-linecap:round;stroke-linejoin:round;stroke-dashoffset:0.04;paint-order:stroke fill markers"
         d="m 223.63477,106.98438 c -59.45895,-4.3e-4 -107.66035,45.8863 -107.66016,102.49023 0,0.1664 0.0118,0.33011 0.0137,0.49609 -34.108681,3.55132 -60.578901,29.278 -60.578124,60.50586 3.78e-4,33.65462 30.738663,60.93712 68.656254,60.9375 1.3821,2e-5 2.75138,-0.0477 4.11328,-0.11914 h 280.76172 c 1.00578,0.0704 2.01749,0.11913 3.04101,0.11914 23.93791,-2.4e-4 43.34346,-19.57544 43.34375,-43.72265 7.7e-4,-23.77531 -18.81421,-43.10563 -42.24219,-43.69727 -0.44219,-36.75951 -32.45433,-66.4351 -71.90039,-66.43555 -5.05171,6e-5 -9.975,0.50175 -14.73242,1.42774 -13.63422,-41.71542 -54.50992,-72.0023 -102.8164,-72.00195 z m 55.88085,103.21679 c -0.0589,0.0916 -0.11731,0.18349 -0.17578,0.27539 0.0586,-0.0919 0.11675,-0.18375 0.17578,-0.27539 z m -4.82421,8.94531 c -0.0443,0.10032 -0.0929,0.19827 -0.13672,0.29883 0.0438,-0.1005 0.0924,-0.19856 0.13672,-0.29883 z m -1.80664,4.57032 c -0.0942,0.26721 -0.18856,0.53405 -0.2793,0.80273 0.0908,-0.26873 0.18494,-0.53548 0.2793,-0.80273 z m -1.57618,5.13281 c -0.0589,0.22662 -0.10957,0.45608 -0.16601,0.68359 0.0565,-0.22763 0.10704,-0.45686 0.16601,-0.68359 z" /><path
         style="fill:none;stroke:#bdbfc7;stroke-width:17.565;stroke-linecap:round;stroke-linejoin:round;stroke-dasharray:none;stroke-dashoffset:0.04;stroke-opacity:1;paint-order:stroke fill markers"
         d="m 136.22317,347.01294 -19.09189,53.74011"
         id="path2" /><path
         style="fill:none;stroke:#f4f4f6;stroke-width:17.565;stroke-linecap:round;stroke-linejoin:round;stroke-dasharray:none;stroke-dashoffset:0.04;stroke-opacity:1;paint-order:stroke fill markers"
         d="M 77.938301,348.65761 66.624581,379.0632"
         id="path2-7" /><path
         style="fill:none;stroke:#f4f4f6;stroke-width:17.565;stroke-linecap:round;stroke-linejoin:round;stroke-dasharray:none;stroke-dashoffset:0.04;stroke-opacity:1;paint-order:stroke fill markers"
         d="m 225.11747,452.43936 -11.31372,30.40559"
         id="path2-7-6" /><path
         style="fill:none;stroke:#f4f4f6;stroke-width:17.565;stroke-linecap:round;stroke-linejoin:round;stroke-dasharray:none;stroke-dashoffset:0.04;stroke-opacity:1;paint-order:stroke fill markers"
         d="M 295.52143,348.65761 284.20771,379.0632"
         id="path2-7-6-7" /><path
         style="fill:none;stroke:#f4f4f6;stroke-width:17.565;stroke-linecap:round;stroke-linejoin:round;stroke-dasharray:none;stroke-dashoffset:0.04;stroke-opacity:1;paint-order:stroke fill markers"
         d="m 332.2043,452.43936 -11.31372,30.40559"
         id="path2-7-6-5" /><path
         style="fill:none;stroke:#f4f4f6;stroke-width:17.565;stroke-linecap:round;stroke-linejoin:round;stroke-dasharray:none;stroke-dashoffset:0.04;stroke-opacity:1;paint-order:stroke fill markers"
         d="M 186.72987,348.65761 175.41615,379.0632"
         id="path2-7-6-6" /><path
         style="fill:none;stroke:#f4f4f6;stroke-width:17.565;stroke-linecap:round;stroke-linejoin:round;stroke-dasharray:none;stroke-dashoffset:0.04;stroke-opacity:1;paint-order:stroke fill markers"
         d="m 118.03064,452.43936 -11.31372,30.40559"
         id="path2-7-6-1" /><path
         style="fill:none;stroke:#f4f4f6;stroke-width:17.565;stroke-linecap:round;stroke-linejoin:round;stroke-dasharray:none;stroke-dashoffset:0.04;stroke-opacity:1;paint-order:stroke fill markers"
         d="M 404.313,348.65761 392.99928,379.0632"
         id="path2-7-6-3" /><path
         style="opacity:0.81;fill:none;stroke:#bdbfc7;stroke-width:17.565;stroke-linecap:round;stroke-linejoin:round;stroke-dasharray:none;stroke-dashoffset:0.04;stroke-opacity:1;paint-order:stroke fill markers"
         d="m 353.8063,347.01294 -19.09189,53.74011"
         id="path2-8" /><path
         style="opacity:0.81;fill:none;stroke:#bdbfc7;stroke-width:17.565;stroke-linecap:round;stroke-linejoin:round;stroke-dasharray:none;stroke-dashoffset:0.04;stroke-opacity:1;paint-order:stroke fill markers"
         d="m 245.01474,347.01294 -19.09189,53.74011"
         id="path2-8-4" /><path
         style="opacity:0.81;fill:none;stroke:#bdbfc7;stroke-width:17.565;stroke-linecap:round;stroke-linejoin:round;stroke-dasharray:none;stroke-dashoffset:0.04;stroke-opacity:1;paint-order:stroke fill markers"
         d="m 284.54997,411.74087 -19.09189,53.74011"
         id="path2-8-4-7" /><path
         style="opacity:0.81;fill:none;stroke:#bdbfc7;stroke-width:17.565;stroke-linecap:round;stroke-linejoin:round;stroke-dasharray:none;stroke-dashoffset:0.04;stroke-opacity:1;paint-order:stroke fill markers"
         d="m 391.6368,411.74087 -19.09189,53.74011"
         id="path2-8-4-7-5" /><path
         style="opacity:0.81;fill:none;stroke:#bdbfc7;stroke-width:17.565;stroke-linecap:round;stroke-linejoin:round;stroke-dasharray:none;stroke-dashoffset:0.04;stroke-opacity:1;paint-order:stroke fill markers"
         d="m 177.46314,411.74087 -19.09189,53.74011"
         id="path2-8-4-78" /><path
         style="opacity:0.81;fill:none;stroke:#bdbfc7;stroke-width:17.565;stroke-linecap:round;stroke-linejoin:round;stroke-dasharray:none;stroke-dashoffset:0.04;stroke-opacity:1;paint-order:stroke fill markers"
         d="m 70.376304,411.74087 -19.09189,53.74011"
         id="path2-8-4-4" /></g></g><g
     id="layer3"
     transform="matrix(0.98987752,0.05486761,-0.05486761,0.98987752,-135.21887,-96.293812)"><path
       id="path3"
       style="fill:#f2dda4;fill-opacity:1;stroke:none;stroke-width:11.682;stroke-linecap:round;stroke-linejoin:round;stroke-dasharray:none;stroke-dashoffset:0.04;stroke-opacity:1;paint-order:stroke fill markers"
       d="m 334.04442,287.64318 a 110.735,110.735 0 0 0 17.20306,-13.06162 110.735,110.735 0 0 1 -95.0004,-53.8499 110.735,110.735 0 0 1 20.70432,-138.626735 110.735,110.735 0 0 0 -56.6755,15.523253 110.735,110.735 0 0 0 -38.12324,151.891772 110.735,110.735 0 0 0 151.89176,38.12323 z" /></g></svg>
